<?xml version="1.0" encoding="UTF-8" standalone="no"?>
<svg
   version="1.1"
   id="Layer_1"
   x="0px"
   y="0px"
   width="100%"
   viewBox="0 0 1024 1024"
   enable-background="new 0 0 1024 1024"
   xml:space="preserve"
   sodipodi:docname="huggingface-light.svg"
   inkscape:version="1.1.2 (0a00cf5339, 2022-02-04)"
   xmlns:inkscape="http://www.inkscape.org/namespaces/inkscape"
   xmlns:sodipodi="http://sodipodi.sourceforge.net/DTD/sodipodi-0.dtd"
   xmlns="http://www.w3.org/2000/svg"
   xmlns:svg="http://www.w3.org/2000/svg"><defs
   id="defs892" /><sodipodi:namedview
   id="namedview890"
   pagecolor="#ffffff"
   bordercolor="#666666"
   borderopacity="1.0"
   inkscape:pageshadow="2"
   inkscape:pageopacity="0.0"
   inkscape:pagecheckerboard="0"
   showgrid="false"
   inkscape:zoom="0.75585938"
   inkscape:cx="513.32299"
   inkscape:cy="512"
   inkscape:window-width="1920"
   inkscape:window-height="1016"
   inkscape:window-x="0"
   inkscape:window-y="27"
   inkscape:window-maximized="1"
   inkscape:current-layer="Layer_1" />

<path
   fill="#000000"
   opacity="1.000000"
   stroke="none"
   d=" M220.769379,318.869202   C248.018661,274.142365 283.319794,237.648880 326.950043,209.403564   C371.316772,180.681488 419.850403,163.305450 472.461945,157.545120   C539.675842,150.186020 603.914490,160.873566 663.928467,191.998215   C756.464661,239.989578 815.296204,315.331573 840.147583,416.517212   C853.919556,472.591675 852.157104,528.773621 836.695007,584.462219   C836.472473,585.263672 836.318909,586.083984 836.113403,586.890442   C834.238342,594.249023 834.257812,594.275818 842.029236,594.625549   C863.338989,595.584473 883.030029,614.107971 886.423950,636.088135   C887.945190,645.940247 886.863708,655.389465 882.843140,664.412781   C881.126526,668.265076 881.454285,671.096191 884.209290,674.364990   C898.950562,691.855774 900.914368,711.081787 891.258545,731.604004   C889.805298,734.692627 889.689575,737.258667 891.083557,740.517517   C900.393066,762.280884 895.012512,784.316284 877.109802,800.251465   C860.505432,815.031006 840.744568,824.145691 820.480530,832.389221   C788.903137,845.235168 756.461426,855.218506 722.742920,860.559021   C690.332642,865.692383 657.830994,868.002991 625.446411,860.324402   C604.806335,855.430664 586.102295,846.655396 571.315430,830.984009   C568.215881,827.699097 564.935425,827.943298 561.310425,828.487732   C542.986267,831.239807 524.566284,832.479065 506.038666,832.247192   C491.199188,832.061523 476.436127,830.903992 461.759613,828.755981   C459.027496,828.356079 456.919464,828.797058 454.971130,830.766724   C432.754242,853.226624 404.776917,862.070679 374.235382,864.359497   C330.221375,867.657898 287.640533,859.688721 245.819931,846.860413   C221.111847,839.281311 196.873016,830.348633 174.100525,817.943726   C160.413498,810.487854 147.513519,801.902649 138.686722,788.563171   C128.764267,773.567932 126.688576,757.753174 134.418182,741.167114   C135.959869,737.858948 135.886597,734.965515 134.366043,731.654297   C124.653252,710.502991 126.722351,690.842224 142.459930,673.244507   C145.012650,670.390137 144.359497,668.081726 143.123001,665.126526   C134.022934,643.377808 138.850876,621.945923 156.213058,605.962769   C162.955338,599.756042 171.013168,596.512817 179.863251,594.910339   C186.510941,593.706726 186.970963,593.224365 185.188309,586.918152   C180.695557,571.024597 177.405502,554.894043 175.209183,538.531067   C170.859512,506.125244 171.166473,473.767792 176.134933,441.449615   C182.328735,401.160767 195.789398,363.394897 215.543060,327.812347   C217.159470,324.900696 218.902161,322.059174 220.769379,318.869202  M582.828186,671.358826   C599.135559,651.732849 612.142700,630.145752 621.165527,606.249023   C624.727844,596.814331 629.296997,588.049316 635.879700,580.345093   C655.704102,557.143005 687.861938,555.738281 709.517273,577.131653   C711.110474,578.705566 712.303589,580.874023 715.176514,581.630005   C716.899597,579.784058 718.733032,577.873779 720.506714,575.909607   C726.662292,569.092773 733.031189,562.505005 741.058960,557.839478   C761.190491,546.139587 781.515137,543.036621 802.148254,556.664307   C806.446289,559.503113 806.978088,555.931519 807.541382,553.246765   C811.475281,534.498657 813.255432,515.479919 813.527588,496.372437   C813.759521,480.079315 812.156982,463.875885 809.803162,447.718658   C805.621948,419.017670 797.257690,391.597961 784.847595,365.482483   C757.607727,308.159332 716.338745,263.614899 661.571106,231.558258   C624.240234,209.707672 583.849487,197.135559 540.996521,192.562424   C522.629028,190.602310 504.147430,190.800476 485.668488,192.277390   C462.001343,194.168945 438.880005,198.670700 416.424805,206.208786   C378.772003,218.848587 344.648560,237.831039 314.394806,263.751038   C273.104797,299.126404 243.355118,342.358887 225.203445,393.562103   C212.967316,428.078400 207.511444,463.668274 208.243118,500.305908   C208.616196,518.987061 210.841675,537.387573 214.402939,555.672424   C215.423798,560.913879 217.263763,561.655701 221.321777,558.512939   C237.161057,546.246155 254.376862,545.112305 272.681000,551.915588   C286.369019,557.003113 296.946869,566.148010 306.377594,576.969971   C311.136871,582.431335 311.415649,582.372253 316.560791,577.010376   C332.987885,559.891357 357.799286,557.576965 376.929718,569.215027   C389.654785,576.956299 398.036804,588.653442 403.102112,602.337769   C412.102173,626.652405 424.806061,648.727783 441.019897,668.851135   C448.333740,677.928528 457.114136,685.692566 464.307495,694.910400   C477.437897,711.736145 485.945190,730.440063 487.157227,751.888916   C487.867432,764.457031 485.129242,776.660400 480.802277,788.490906   C478.883148,793.738220 479.692108,795.077515 485.294830,795.484680   C502.234985,796.715698 519.200867,797.091187 536.123169,795.406311   C539.428284,795.077087 543.037720,795.238953 546.093201,793.560608   C546.278564,791.186707 545.297180,789.400940 544.644043,787.531006   C541.338379,778.066895 538.955872,768.349243 538.714783,758.330872   C538.149780,734.853271 546.730530,714.485657 560.685242,696.052979   C567.240112,687.394653 575.085632,679.907959 582.828186,671.358826  M301.763062,706.123962   C294.774689,702.460388 288.641541,697.633118 282.920380,692.250427   C264.932007,675.326050 245.665359,660.004456 225.064865,646.386292   C215.328873,639.950317 205.324524,633.955750 193.866882,630.981262   C185.981934,628.934265 180.917892,630.545349 177.087662,636.179565   C173.183868,641.921875 173.461090,647.279175 177.907501,653.761536   C180.193253,657.093811 183.027191,659.861938 186.147583,662.398926   C203.550995,676.548645 223.462830,686.799500 242.367920,698.613159   C254.090866,705.938843 265.931183,713.101990 276.403473,722.209229   C281.068909,726.266479 284.678223,730.984131 283.369598,737.785828   C282.403381,742.807861 279.931671,744.417175 275.171692,742.720825   C271.736053,741.496521 268.327118,740.033875 265.170502,738.218262   C251.168991,730.164917 237.343384,721.803955 223.298767,713.827881   C210.272690,706.430359 197.174301,699.086365 182.326675,695.793457   C175.487228,694.276611 169.277100,696.130371 166.546677,700.399231   C163.080307,705.818665 163.691849,712.028320 168.312057,717.970886   C170.676605,721.012146 173.391510,723.672180 176.592438,725.867798   C185.579239,732.032288 195.434784,736.489746 205.442078,740.635498   C219.893936,746.622375 234.943115,751.198669 248.714111,758.783813   C253.367538,761.346985 258.137634,763.950623 260.217224,769.372986   C262.612885,775.619324 259.374664,780.468628 252.680984,780.385437   C243.838577,780.275452 236.477570,775.739441 228.958435,771.897766   C218.582764,766.596436 208.409546,760.899170 198.040009,755.585449   C192.242065,752.614380 186.080978,750.425781 179.502228,750.078064   C174.667831,749.822571 170.304337,750.925537 167.458633,755.528320   C164.554962,760.224976 165.742722,764.289246 168.603500,768.460754   C170.903412,771.814392 173.716461,774.584290 176.929016,776.987366   C190.536530,787.166382 205.901123,793.984802 221.583969,800.154358   C269.164398,818.872375 317.906219,831.557922 369.663269,828.656860   C381.711090,827.981628 393.360718,825.604126 404.640656,821.367554   C428.174683,812.528748 440.602905,793.823120 448.669037,771.407776   C452.894531,759.665466 452.276367,747.919006 447.529236,736.372375   C442.286987,723.621460 433.375214,713.538940 423.997620,703.776917   C400.719391,679.544678 383.878357,651.278015 371.540344,620.169861   C368.842590,613.367920 366.118713,606.552673 360.272186,601.584839   C354.663452,596.819031 346.831268,596.974243 341.901337,602.445862   C335.271790,609.803894 333.092529,618.964294 333.696442,628.391724   C334.774414,645.220520 343.261749,658.125122 356.768433,667.984375   C361.225372,671.237793 365.076324,675.190857 367.423492,680.341309   C370.911224,687.994385 368.017700,694.649353 360.054321,697.339355   C351.083588,700.369751 340.536285,696.332458 335.516022,687.785461   C331.221893,680.474854 327.158630,673.028809 322.879700,665.709045   C310.104156,643.854553 296.998657,622.205139 280.855835,602.603577   C273.919556,594.181091 266.378448,586.472961 254.974030,584.175537   C247.418671,582.653442 241.397110,586.787537 240.403458,594.458191   C239.149704,604.136536 241.306183,612.808044 247.191971,620.784424   C259.418243,637.353394 274.261383,651.485962 288.573486,666.123657   C297.072662,674.816223 305.702911,683.415771 312.503448,693.559875   C314.898895,697.133118 317.523956,701.509766 314.142426,705.497986   C311.052673,709.142029 306.517029,707.589661 301.763062,706.123962  M746.340942,688.847046   C740.589722,694.153870 734.959595,699.597961 728.278503,703.792053   C724.537720,706.140381 720.665649,707.924500 716.111511,707.543518   C711.199280,707.132629 709.074524,703.987427 710.450867,699.312378   C711.510925,695.711670 713.686951,692.752502 715.849548,689.803406   C723.766357,679.007202 733.787292,670.131531 742.897705,660.429688   C754.745605,647.812805 767.371094,635.927917 777.812195,622.013611   C783.681396,614.192078 786.493286,605.679626 785.630737,595.894470   C784.850952,587.049072 778.181458,582.096558 769.687683,584.381104   C763.479309,586.050964 757.978271,588.992310 753.297180,593.510864   C745.948059,600.604919 739.755249,608.639832 733.890808,616.942566   C718.400635,638.873596 704.693909,661.910522 691.762939,685.415100   C688.100769,692.071777 683.017090,696.612427 675.419312,698.109924   C668.695862,699.435120 660.878113,696.531250 658.253723,691.632141   C655.528137,686.544067 657.024109,679.688232 662.258057,674.437439   C665.190125,671.495911 668.299316,668.708374 671.508911,666.070679   C679.246216,659.712219 685.665161,652.301208 688.940979,642.750061   C693.517761,629.405823 693.818176,616.170776 685.125549,604.180054   C679.393066,596.272522 671.108093,595.902771 664.169800,602.757690   C659.178162,607.689270 656.764038,614.075439 654.238098,620.466553   C642.754944,649.520325 627.045959,676.022949 606.043945,699.271667   C599.573669,706.434082 592.483276,713.044006 586.895020,720.991333   C579.882019,730.964783 574.709167,741.659851 574.402771,754.103271   C573.863647,776.000671 592.336914,813.125854 624.112183,822.657776   C642.785645,828.259399 661.681824,830.305847 681.203064,828.969849   C698.656128,827.775391 715.857300,825.408630 732.976990,822.008240   C758.366211,816.965393 782.748108,808.691589 806.729919,799.159302   C820.517822,793.678772 833.997620,787.531616 846.201355,778.915344   C850.999146,775.527954 855.532166,771.940552 858.342407,766.592163   C862.038635,759.557373 858.106018,751.505676 850.253967,750.295837   C845.718140,749.596924 841.306274,750.381104 837.014099,751.876221   C826.432373,755.562073 816.703979,761.016296 806.930664,766.386597   C797.743286,771.435059 788.699158,776.805664 778.541077,779.800598   C772.469727,781.590637 768.005005,780.599426 765.938110,777.058777   C763.458496,772.811096 764.650940,768.476929 769.674561,763.893311   C773.533569,760.372314 778.049316,757.815674 782.821228,755.828613   C798.184814,749.430847 813.684326,743.355408 828.991272,736.827026   C839.416260,732.380859 849.781250,727.585632 857.184753,718.490784   C860.159973,714.835876 862.335632,710.647644 861.107361,705.623413   C858.954712,696.818298 853.117371,693.644897 843.013672,695.984070   C824.705872,700.222595 808.979492,710.066895 792.989197,719.304443   C779.735718,726.961060 767.136292,735.787659 752.993896,741.844116   C750.221313,743.031494 746.929871,745.130798 744.259216,742.025696   C741.473083,738.786255 740.968994,734.892761 742.796387,730.793701   C744.983398,725.887878 748.816467,722.461304 752.869751,719.234009   C765.413452,709.246521 779.264648,701.235962 792.897156,692.899353   C809.083313,683.001160 825.821106,673.942932 840.497498,661.746033   C845.297424,657.756958 849.428345,653.200623 851.146729,646.993286   C853.207214,639.549927 846.616577,630.705017 838.918823,630.338501   C831.814453,630.000305 825.471313,632.584290 819.389648,635.670410   C792.412781,649.359802 769.489441,668.671631 746.340942,688.847046  z"
   id="path877"
   style="fill:#ffffff;fill-opacity:1" />
<path
   fill="#000000"
   opacity="1.000000"
   stroke="none"
   d=" M395.301086,517.361938   C394.185822,511.299194 394.372070,505.604858 394.853973,499.994843   C395.460846,492.929169 400.140228,489.885101 407.045959,491.302795   C414.140869,492.759399 420.563507,495.925323 426.947540,499.139496   C440.326782,505.875610 453.813629,512.371277 467.896912,517.518005   C498.647461,528.755737 528.794800,526.492981 558.713379,513.923462   C574.066406,507.473267 588.434998,498.954559 604.019409,493.056244   C605.569031,492.469727 607.155212,491.952362 608.760376,491.544342   C617.076172,489.430634 621.934021,493.122925 622.341553,501.720428   C623.085938,517.426880 619.868896,532.443359 614.449158,547.060547   C604.096497,574.982178 586.719299,596.913025 559.565430,610.135315   C539.302246,620.002258 517.809937,622.744995 495.455963,620.533386   C477.027832,618.710205 460.135040,613.021057 444.708313,602.741882   C425.144745,589.706299 412.490784,571.389465 403.814606,549.971985   C399.621460,539.621155 396.441284,528.988403 395.301086,517.361938  M552.439392,572.145630   C547.888245,568.724426 542.738342,566.479919 537.578857,564.143677   C532.833008,561.994690 529.680542,563.297485 526.971069,567.233032   C523.864502,571.745361 520.852844,576.332947 517.544006,580.693604   C512.815308,586.925415 508.182831,586.721497 503.746735,580.182129   C500.671844,575.649292 497.740936,571.016174 494.835907,566.371460   C492.534790,562.692261 489.687195,561.854370 485.520264,563.394287   C471.404053,568.610901 459.888580,577.188843 450.855042,589.185120   C447.194244,594.046570 447.247253,594.669922 452.607178,597.812073   C466.148315,605.750671 480.703033,610.610474 496.360809,612.103027   C522.228943,614.568787 546.280884,609.395691 568.386475,595.438843   C572.390991,592.910461 572.119934,590.736877 569.500122,587.558838   C564.717102,581.756531 559.294373,576.691345 552.439392,572.145630  z"
   id="path879"
   style="fill:#ffffff;fill-opacity:1" />
<path
   fill="#000000"
   opacity="1.000000"
   stroke="none"
   d=" M623.352905,427.635376   C619.469360,422.852631 616.732483,417.611847 612.033691,413.944427   C609.206482,411.737793 606.313110,410.733063 602.769836,411.946228   C597.123169,413.879486 591.488770,415.881500 585.749756,417.502563   C580.343750,419.029572 577.810303,417.606415 575.469177,412.473236   C563.282593,385.753510 578.197327,355.388550 607.034851,350.123962   C634.660522,345.080627 657.169861,363.812683 659.374207,389.249939   C660.916931,407.051636 654.329895,420.993408 639.358826,430.831177   C632.700317,435.206604 628.699646,434.398895 623.352905,427.635376  z"
   id="path881"
   style="fill:#ffffff;fill-opacity:1" />
<path
   fill="#000000"
   opacity="1.000000"
   stroke="none"
   d=" M362.700745,421.207672   C341.853760,394.794647 356.518860,355.376160 389.345886,350.033691   C405.057312,347.476685 419.599670,351.318756 430.420654,363.997345   C442.550629,378.209686 444.503906,394.323944 437.910858,411.559448   C435.712219,417.307068 432.114014,418.996521 426.050781,417.287659   C421.267853,415.939636 416.649200,414.019104 411.919922,412.467743   C405.892212,410.490387 401.374939,411.830231 397.421783,416.930573   C394.473053,420.734985 391.851166,424.791229 388.949768,428.634216   C384.967194,433.909393 380.242584,434.860870 374.540344,431.534821   C370.056274,428.919250 366.070099,425.670532 362.700745,421.207672  z"
   id="path883"
   style="fill:#ffffff;fill-opacity:1" />
<path
   fill="#000000"
   opacity="1.000000"
   stroke="none"
   d=" M298.185455,450.231659   C285.634491,443.812653 280.016693,433.054810 281.697083,419.177521   C283.008148,408.350128 291.796021,398.890686 303.099976,396.139038   C318.772003,392.324036 335.139435,401.812317 338.002502,417.165009   C341.299835,434.846008 331.963135,448.419189 316.638763,451.862701   C310.611206,453.217163 304.408752,452.935181 298.185455,450.231659  z"
   id="path885"
   style="fill:#ffffff;fill-opacity:1" />
<path
   fill="#000000"
   opacity="1.000000"
   stroke="none"
   d=" M687.492004,419.748260   C689.057617,405.714752 700.837463,396.260254 715.107727,395.436951   C733.662048,394.366455 749.522522,413.099884 742.915405,433.367920   C738.721436,446.233032 726.828064,453.496674 711.414917,452.354218   C700.003662,451.508392 689.423828,441.077087 687.541992,428.974792   C687.082275,426.018097 686.088440,423.128052 687.492004,419.748260  z"
   id="path887"
   style="fill:#ffffff;fill-opacity:1" />
</svg>
