<svg width="95" height="22" viewBox="0 0 95 22" fill="none" xmlns="http://www.w3.org/2000/svg">
<path fill-rule="evenodd" clip-rule="evenodd" d="M9.35 0L12.9643 2.09524L3.45714 7.72619V12.5714L0 10.5548V5.44762L9.35 0ZM18.7786 16.2643L15.1643 18.4119V7.64763L10.7905 5.08097L14.4571 2.95954L18.7786 5.47382V16.2643ZM0 12.3619V16.3428L9.45476 21.7643L13.6714 19.2762L13.6452 15.1381L9.35 17.7048L0 12.3619Z" fill="#64BC4F"/>
<path fill-rule="evenodd" clip-rule="evenodd" d="M4.9762 10.5811L6.57381 11.4978V9.42871L10.9214 6.88824L9.35001 5.91919L4.9762 8.48586V10.5811ZM11.8643 7.43819L10.2667 8.35485L12.1 9.42866L12.0738 14.3263L13.6714 13.4096V8.4858L11.8643 7.43819ZM11.1571 13.1215V14.9025L9.35001 15.9763L4.9762 13.4358V11.6549L9.32382 14.1954L11.1571 13.1215Z" fill="#666666"/>
<path fill-rule="evenodd" clip-rule="evenodd" d="M56.5452 3.16919V8.01443C56.8595 7.59538 57.2523 7.2549 57.6976 6.94062C58.1428 6.65252 58.6666 6.49538 59.2428 6.49538C59.819 6.49538 60.3166 6.57395 60.7357 6.73109C61.1547 6.88824 61.5214 7.15014 61.8357 7.46443C62.5428 8.17157 62.9095 9.11443 62.9095 10.2668V15.3478H61.5999V10.3454C61.5999 9.53348 61.3642 8.9049 60.919 8.43347C60.4738 7.96205 59.8714 7.72633 59.1642 7.72633C58.4309 7.72633 57.8023 7.96205 57.3047 8.45966C56.7809 8.95728 56.5452 9.58586 56.5452 10.3716V15.4001H55.2357V3.16919H56.5452ZM49.7881 7.64775C51.1238 7.64775 51.8571 8.09299 51.9619 9.00965V8.95727H53.2714C53.1928 8.25013 52.9047 7.67394 52.3809 7.25489C51.7786 6.75727 50.9405 6.49537 49.8666 6.49537C48.7405 6.49537 47.9024 6.70489 47.3262 7.15013C46.75 7.56918 46.4619 8.19775 46.4619 8.98346C46.4619 9.53346 46.5928 9.92632 46.8809 10.2406C47.169 10.5287 47.5357 10.7644 47.9547 10.9477C48.4 11.1311 48.8714 11.262 49.369 11.3668C49.8928 11.4716 50.3643 11.5763 50.7833 11.7073C51.2024 11.8382 51.569 11.9954 51.8571 12.1787C52.1452 12.3882 52.2762 12.6501 52.2762 13.0168C52.2762 13.5406 51.9881 13.9335 51.4381 14.143L51.3476 14.1703C51.1209 14.2391 50.91 14.3032 50.6786 14.3263C50.4166 14.3525 50.1286 14.3787 49.8405 14.3787C49.5524 14.3787 49.2643 14.3525 48.95 14.2477C48.1119 13.9597 47.6666 13.4358 47.5881 12.6239H46.2262C46.2785 13.462 46.619 14.1168 47.2476 14.6406C47.9285 15.2168 48.8714 15.5049 50.0238 15.5049C51.1238 15.5049 51.9881 15.2692 52.6166 14.8239C53.2714 14.3787 53.5857 13.7239 53.5857 12.8858C53.5857 12.3358 53.4547 11.9168 53.1667 11.6025C52.8786 11.2882 52.5119 11.0525 52.0928 10.8692C51.6476 10.6858 51.1762 10.5549 50.6786 10.4501C50.2403 10.3844 49.8387 10.282 49.4738 10.1889L49.4734 10.1888L49.4721 10.1885C49.4015 10.1705 49.3322 10.1528 49.2643 10.1358C48.8452 10.0311 48.4785 9.87394 48.1905 9.69061C47.9024 9.50727 47.7714 9.24537 47.7714 8.90489C47.7714 8.0668 48.4524 7.64775 49.7881 7.64775ZM30.9309 6.52152C32.2404 6.52152 33.2881 6.96676 34.1 7.83104C34.8595 8.66914 35.2523 9.74295 35.2523 11.0263C35.2523 12.3096 34.8595 13.3834 34.1 14.2215C33.2881 15.0858 32.2404 15.531 30.9309 15.531C29.6214 15.531 28.5738 15.0858 27.7619 14.2215C27.0023 13.3834 26.6095 12.3096 26.6095 11.0263C26.6095 9.74295 27.0023 8.66914 27.7619 7.83104C28.5738 6.96676 29.6214 6.52152 30.9309 6.52152ZM30.9309 14.3263C31.8738 14.3263 32.6071 14.012 33.1571 13.3572C33.6809 12.7287 33.9428 11.9691 33.9428 11.0263C33.9428 10.0834 33.6809 9.29771 33.1571 8.69533C32.6071 8.04057 31.8738 7.72628 30.9309 7.72628C29.9881 7.72628 29.2547 8.04057 28.7047 8.69533C28.1809 9.3239 27.919 10.0834 27.919 11.0263C27.919 11.9691 28.1809 12.7549 28.7047 13.3572C29.2285 14.012 29.9881 14.3263 30.9309 14.3263ZM38.2904 6.67866V8.04057C38.6047 7.62152 38.9976 7.28104 39.4428 6.96676C39.8881 6.67866 40.4119 6.52152 40.9881 6.52152C41.5642 6.52152 42.0619 6.60009 42.4809 6.75723C42.9 6.91438 43.2666 7.17628 43.5809 7.49057C44.2881 8.19771 44.6547 9.14057 44.6547 10.2929V15.3739H43.3452V10.3453C43.3452 9.53343 43.1095 8.90485 42.6642 8.43342C42.219 7.962 41.6166 7.72628 40.9095 7.72628C40.1761 7.72628 39.5476 7.962 39.05 8.45961C38.5261 8.95723 38.2904 9.58581 38.2904 10.3715V15.4001H36.9809V6.67866H38.2904ZM68.7762 15.531C70.1643 15.531 71.1857 15.0072 71.8928 13.9858V15.3739H73.2023V6.65247H71.8928V8.06676C71.1857 7.04533 70.1643 6.52152 68.8547 6.52152C67.5452 6.52152 66.4976 6.96676 65.7119 7.83104C64.9524 8.69533 64.5595 9.76914 64.5595 11.0263C64.5595 12.3096 64.9524 13.3572 65.7119 14.2215C66.4976 15.0858 67.519 15.531 68.7762 15.531ZM71.1857 13.3572C70.6357 14.012 69.9023 14.3263 68.9595 14.3263C68.0166 14.3263 67.2571 14.012 66.7071 13.3572C66.1571 12.7549 65.8952 11.9691 65.8952 11.0263C65.8952 10.0834 66.1571 9.3239 66.7071 8.69533C67.2833 8.04057 68.0428 7.72628 68.9595 7.72628C69.9023 7.72628 70.6357 8.04057 71.1857 8.69533C71.7095 9.29771 71.9714 10.0834 71.9714 11.0263C71.9714 11.9691 71.7095 12.7287 71.1857 13.3572ZM76.7643 8.06676C77.4714 7.04533 78.4928 6.52152 79.8809 6.52152C81.1381 6.52152 82.1595 6.96676 82.919 7.83104C83.7047 8.69533 84.0976 9.74295 84.0976 11.0263C84.0976 12.2834 83.7047 13.3572 82.919 14.2215C82.1333 15.0858 81.0857 15.531 79.7762 15.531C78.4666 15.531 77.4452 15.0072 76.7381 13.9858V18.8572H75.4285V6.67866H76.7381V8.06676H76.7643ZM79.7238 7.70009C78.7809 7.70009 78.0476 8.01438 77.4976 8.66914C76.9738 9.29771 76.7119 10.0572 76.7119 11.0001C76.7119 11.9429 76.9738 12.7287 77.4976 13.331C78.0476 13.9858 78.7809 14.3001 79.7238 14.3001C80.6404 14.3001 81.4 13.9858 81.9762 13.331C82.5262 12.7025 82.7881 11.9429 82.7881 11.0001C82.7881 10.0572 82.5262 9.27152 81.9762 8.66914C81.4 8.04057 80.6404 7.70009 79.7238 7.70009ZM92.2167 12.8597C91.719 13.8287 90.8809 14.3263 89.7024 14.3263C88.8381 14.3263 88.1309 14.0644 87.5809 13.5144C87.0309 12.9906 86.7167 12.3358 86.6119 11.5239H93.919V11.0001C93.919 9.7168 93.5262 8.64299 92.7667 7.80489C91.9548 6.94061 90.9071 6.49537 89.5976 6.49537C88.2881 6.49537 87.2405 6.94061 86.4286 7.80489C85.669 8.64299 85.2762 9.7168 85.2762 11.0001C85.2762 12.2835 85.669 13.3573 86.4809 14.1954C87.2929 15.0597 88.3667 15.5049 89.6762 15.5049C90.7238 15.5049 91.5619 15.2692 92.2167 14.7716C92.8714 14.3001 93.3429 13.6454 93.6571 12.8597H92.2167ZM87.5809 8.45965C88.1309 7.96203 88.7857 7.70013 89.5976 7.70013C90.4095 7.70013 91.0643 7.96203 91.6143 8.45965C92.1381 8.93108 92.4524 9.55965 92.5571 10.3192H86.6381C86.769 9.55965 87.0571 8.93108 87.5809 8.45965Z" fill="#666666"/>
</svg>
