<?xml version="1.0" encoding="UTF-8" standalone="no"?>
<svg
   version="1.1"
   id="Layer_1"
   x="0px"
   y="0px"
   width="100%"
   viewBox="0 0 276 276"
   enable-background="new 0 0 276 276"
   xml:space="preserve"
   sodipodi:docname="venmo-dark.svg"
   inkscape:version="1.1.2 (0a00cf5339, 2022-02-04)"
   xmlns:inkscape="http://www.inkscape.org/namespaces/inkscape"
   xmlns:sodipodi="http://sodipodi.sourceforge.net/DTD/sodipodi-0.dtd"
   xmlns="http://www.w3.org/2000/svg"
   xmlns:svg="http://www.w3.org/2000/svg"><defs
   id="defs21" /><sodipodi:namedview
   id="namedview19"
   pagecolor="#ffffff"
   bordercolor="#666666"
   borderopacity="1.0"
   inkscape:pageshadow="2"
   inkscape:pageopacity="0.0"
   inkscape:pagecheckerboard="0"
   showgrid="false"
   inkscape:zoom="2.9384058"
   inkscape:cx="138.17016"
   inkscape:cy="138.17016"
   inkscape:window-width="1920"
   inkscape:window-height="1016"
   inkscape:window-x="0"
   inkscape:window-y="27"
   inkscape:window-maximized="1"
   inkscape:current-layer="Layer_1" />
<path
   fill="#FFFFFF"
   opacity="1.000000"
   stroke="none"
   d=" M1.000000,227.000000   C1.000000,226.555557 1.000000,226.111099 1.308691,225.209656   C1.411587,223.835098 1.205793,222.917542 0.999999,222.000000   C1.000000,166.979111 1.000000,111.958214 1.308690,56.344986   C1.411587,54.835102 1.205794,53.917549 1.000000,53.000000   C1.000000,52.555553 1.000000,52.111111 1.357263,51.193447   C2.131408,50.035622 2.781585,49.398300 2.931326,48.659546   C7.660488,25.327814 21.758701,10.639562 44.354618,3.921646   C48.799713,2.600090 53.446327,1.956345 58.000000,1.000000   C111.687561,1.000000 165.375122,1.000000 219.741302,1.358234   C223.828293,2.145312 227.247498,2.502396 230.643219,3.014899   C249.536301,5.866351 269.724548,24.659193 274.003448,43.412548   C275.107422,48.251045 276.006683,53.136250 277.000000,58.000000   C277.000000,111.687561 277.000000,165.375122 276.641785,219.741302   C275.854675,223.828293 275.497620,227.247482 274.985107,230.643204   C272.133453,249.536560 253.340866,269.724609 234.587509,274.003418   C229.748993,275.107452 224.863770,276.006714 220.000000,277.000000   C166.312439,277.000000 112.624878,277.000000 58.258698,276.641785   C54.326748,275.858459 51.063629,275.496948 47.821682,274.997955   C26.739107,271.752869 6.485332,251.627914 2.942956,230.571091   C2.730389,229.307541 1.667316,228.187057 1.000000,227.000000  M147.514465,137.982773   C143.317566,146.608322 139.120651,155.233887 134.923752,163.859436   C134.462845,163.753815 134.001938,163.648193 133.541031,163.542572   C129.760300,132.675018 125.979584,101.807449 122.226273,71.163727   C105.299728,72.854927 89.693306,74.414230 73.762505,76.005943   C74.316795,78.118973 74.757904,79.346443 74.952782,80.611832   C77.670479,98.258171 80.247017,115.926933 83.072823,133.555786   C86.959091,157.800278 91.038429,182.013794 95.003349,206.245758   C95.445206,208.946198 96.701370,210.079559 99.610962,210.057434   C115.601349,209.935730 131.594254,210.085861 147.582901,209.878845   C149.373215,209.855667 151.790100,208.627563 152.816406,207.178909   C159.919617,197.152725 167.090851,187.142868 173.560242,176.706268   C186.293961,156.163956 197.784760,134.995514 202.555054,110.909416   C205.523972,95.918861 204.574280,81.507523 196.388550,68.132675   C181.847443,71.141579 167.483063,74.113907 153.670731,76.972000   C154.845337,83.796173 156.345383,90.017052 156.914780,96.321976   C158.228302,110.866615 152.975052,124.097397 147.514465,137.982773  z"
   id="path2"
   style="fill:#020202;fill-opacity:1" />




<path
   fill="#9254E5"
   opacity="1.000000"
   stroke="none"
   d=" M1.000000,53.375000   C1.205794,53.917549 1.411587,54.835102 1.308690,55.876328   C1.000000,55.250000 1.000000,54.500000 1.000000,53.375000  z"
   id="path12" />
<path
   fill="#9254E5"
   opacity="1.000000"
   stroke="none"
   d=" M0.999999,222.375000   C1.205793,222.917542 1.411587,223.835098 1.308691,224.876312   C1.000000,224.250000 1.000000,223.500000 0.999999,222.375000  z"
   id="path14" />

</svg>
