<?xml version="1.0" encoding="UTF-8" standalone="no"?>
<svg
   version="1.1"
   id="Layer_1"
   x="0px"
   y="0px"
   width="100%"
   viewBox="0 0 480 480"
   enable-background="new 0 0 480 480"
   xml:space="preserve"
   sodipodi:docname="zelle-dark.svg"
   inkscape:version="1.1.2 (0a00cf5339, 2022-02-04)"
   xmlns:inkscape="http://www.inkscape.org/namespaces/inkscape"
   xmlns:sodipodi="http://sodipodi.sourceforge.net/DTD/sodipodi-0.dtd"
   xmlns="http://www.w3.org/2000/svg"
   xmlns:svg="http://www.w3.org/2000/svg"><defs
   id="defs11" /><sodipodi:namedview
   id="namedview9"
   pagecolor="#ffffff"
   bordercolor="#666666"
   borderopacity="1.0"
   inkscape:pageshadow="2"
   inkscape:pageopacity="0.0"
   inkscape:pagecheckerboard="0"
   showgrid="false"
   inkscape:zoom="1.6895833"
   inkscape:cx="239.70407"
   inkscape:cy="240.29594"
   inkscape:window-width="1920"
   inkscape:window-height="1016"
   inkscape:window-x="0"
   inkscape:window-y="27"
   inkscape:window-maximized="1"
   inkscape:current-layer="Layer_1" />

<path
   fill="#FFFEFF"
   opacity="1.000000"
   stroke="none"
   d=" M157.000000,421.000458   C146.170273,421.000458 135.835693,421.201843 125.511978,420.952820   C110.397301,420.588257 97.188805,414.822296 85.819221,405.190125   C74.249550,395.388458 66.067436,383.190002 62.663662,368.177795   C61.878838,364.716309 61.072662,361.153687 61.068554,357.636688   C60.978191,280.163879 60.878326,202.690567 61.104027,125.218285   C61.147999,110.125313 67.265694,96.862854 77.081123,85.523926   C86.877373,74.207161 98.786835,65.979073 113.688934,62.762691   C117.155670,62.014450 120.689285,61.077625 124.193192,61.073219   C200.999557,60.976643 277.806091,61.023911 354.612579,60.979179   C370.209106,60.970097 383.783783,66.600388 395.562561,76.246788   C407.528931,86.046791 415.905975,98.511803 419.360840,113.850380   C420.177277,117.475082 420.928345,121.217682 420.932648,124.906944   C421.022491,202.046555 421.107697,279.186584 420.908081,356.325775   C420.869141,371.376617 414.946747,384.694244 405.292938,396.073547   C397.306213,405.487823 387.818604,413.281525 375.740051,416.931030   C369.618988,418.780518 363.213989,420.800720 356.929291,420.827179   C290.453796,421.106995 223.976669,421.000458 157.000000,421.000458  M242.492584,184.999573   C246.324814,184.999573 250.161209,184.901764 253.986557,185.063980   C255.026016,185.108063 256.548859,185.701508 256.900574,186.474670   C257.218079,187.172607 256.443970,188.618774 255.796921,189.463562   C251.165009,195.510849 246.492615,201.528854 241.734406,207.477219   C237.136749,213.224823 232.497116,218.942627 227.732285,224.551514   C224.130539,228.791321 220.084930,232.665955 216.628555,237.014450   C211.985550,242.855896 207.822479,249.076569 203.257339,254.982941   C200.021729,259.169189 196.370193,263.031586 193.064804,267.166809   C185.419388,276.731659 177.982285,286.464844 170.244583,295.953491   C165.178177,302.166351 160.643417,308.180145 161.839310,317.097382   C162.673355,323.316681 162.011658,329.738770 161.989502,336.070129   C161.967911,342.234467 164.705627,345.019043 170.757980,345.012726   C186.586639,344.996185 202.417480,345.145203 218.242554,344.905182   C222.516449,344.840363 224.125305,345.855225 223.960358,350.403442   C223.622421,359.721802 223.785309,369.061951 223.911026,378.390839   C223.942245,380.707947 224.618637,383.016357 224.944519,385.000275   C237.994049,385.000275 250.318466,384.783264 262.628326,385.111725   C267.269226,385.235565 268.211121,383.221100 268.172546,379.322083   C268.076965,369.659210 268.310272,359.990356 268.060364,350.332977   C267.955688,346.289886 268.989441,344.813141 273.326996,344.896790   C287.650848,345.173035 301.983246,344.997894 316.312347,345.013885   C322.080383,345.020325 325.019257,342.165619 325.016449,336.505432   C325.012146,327.841370 325.010864,319.177338 325.014435,310.513275   C325.016785,304.841064 322.089508,301.985229 316.325928,301.987488   C288.500763,301.998383 260.675629,301.999786 232.850479,301.991913   C231.615677,301.991547 230.380920,301.867371 228.441223,301.762878   C229.274872,300.225281 229.641724,299.178497 230.307846,298.382019   C233.785675,294.223694 237.480286,290.240204 240.839401,285.990326   C249.387436,275.175568 257.698914,264.173218 266.292419,253.395309   C273.663300,244.150833 281.374176,235.178116 288.789581,225.968414   C299.330139,212.877426 309.735992,199.678009 320.203369,186.528046   C323.163452,182.809311 325.503723,179.117920 325.135803,173.827301   C324.605408,166.199951 324.990509,158.507935 325.011108,150.843582   C325.027588,144.705719 322.296234,141.981873 316.156464,141.989227   C301.660736,142.006607 287.163818,141.899979 272.670074,142.071350   C269.158875,142.112869 267.990601,141.006638 268.077972,137.511307   C268.277740,129.518646 268.227753,121.516045 268.086639,113.520889   C268.045868,111.211624 267.350372,108.913918 267.001038,106.878952   C252.622208,106.878952 238.993057,106.878952 224.843552,106.878952   C224.509201,108.958786 223.930161,110.978203 223.903442,113.004898   C223.795837,121.167747 223.726425,129.336014 223.921249,137.495621   C224.004196,140.970062 222.877869,142.114578 219.345642,142.072144   C204.685379,141.895950 190.021881,141.985184 175.359558,141.986450   C169.852890,141.986938 166.991257,144.839813 166.986313,150.333878   C166.978516,158.997940 166.998260,167.662018 166.986633,176.326065   C166.978897,182.088745 169.842255,185.016403 175.514099,185.014511   C197.507614,185.007172 219.501114,185.004181 242.492584,184.999573  z"
   id="path4"
   style="fill:#010000;fill-opacity:1" />

</svg>
