<svg xmlns="http://www.w3.org/2000/svg" viewBox="0 0 980 560" role="img" aria-labelledby="title desc" font-family="Inter, system-ui, Arial, sans-serif">
  <title id="title">A person is a recurrent causal structure</title>
  <desc id="desc">A dense recurrent causal graph stands for the person itself. The labels we hang on it are external compressions of the same topology. A self-modeling closure region marks where the system represents itself.</desc>
  <style>
    :root { --svg-primary: #0f172a; --svg-secondary: #64748b; --svg-muted: #94a3b8; --svg-soft: #475569; --svg-line: #cbd5e1; --svg-divider: #e2e8f0; --svg-inverse: #ffffff; }
    @media (prefers-color-scheme: dark) {
      :root { --svg-primary: #e5e7eb; --svg-secondary: #a1a1aa; --svg-muted: #71717a; --svg-soft: #cbd5e1; --svg-line: #52525b; --svg-divider: #3f3f46; --svg-inverse: #111827; }
    }
  </style>
  <defs>
    <marker id="loop" markerWidth="7" markerHeight="7" refX="6" refY="3.5" orient="auto">
      <path d="M0,0 L6,3.5 L0,7 Z" fill="var(--svg-primary)"/>
    </marker>
  </defs>

  <text x="60" y="56" font-size="22" font-weight="500" fill="var(--svg-primary)" letter-spacing="-0.01em">A person is a recurrent causal structure</text>
  <text x="60" y="80" font-size="13" fill="var(--svg-secondary)">Identity &#8801; the topology itself &#8212; not modules, not substrate, not biography. What can persist is the structure that keeps closing on itself.</text>

  <!-- background edges (dense, thin gray) -->
  <g fill="none" stroke="var(--svg-muted)" stroke-width="0.7" opacity="0.9">
    <!-- horizontal scan -->
    <path d="M120 240 L168 208"/>
    <path d="M168 208 L222 230"/>
    <path d="M222 230 L268 210"/>
    <path d="M268 210 L320 192"/>
    <path d="M320 192 L372 218"/>
    <path d="M372 218 L420 196"/>
    <path d="M420 196 L470 178"/>
    <path d="M470 178 L520 196"/>
    <path d="M520 196 L572 176"/>
    <path d="M572 176 L624 200"/>
    <path d="M624 200 L676 184"/>
    <path d="M676 184 L726 210"/>
    <path d="M726 210 L778 192"/>
    <path d="M778 192 L830 218"/>
    <path d="M830 218 L862 246"/>

    <path d="M150 296 L200 278"/>
    <path d="M200 278 L252 296"/>
    <path d="M252 296 L304 278"/>
    <path d="M304 278 L354 300"/>
    <path d="M354 300 L406 284"/>
    <path d="M406 284 L458 304"/>
    <path d="M458 304 L510 290"/>
    <path d="M510 290 L562 308"/>
    <path d="M562 308 L614 292"/>
    <path d="M614 292 L666 310"/>
    <path d="M666 310 L718 294"/>
    <path d="M718 294 L770 310"/>
    <path d="M770 310 L820 290"/>

    <path d="M138 366 L188 388"/>
    <path d="M188 388 L240 366"/>
    <path d="M240 366 L292 386"/>
    <path d="M292 386 L344 368"/>
    <path d="M344 368 L396 388"/>
    <path d="M396 388 L448 370"/>
    <path d="M448 370 L500 390"/>
    <path d="M500 390 L552 370"/>
    <path d="M552 370 L604 390"/>
    <path d="M604 390 L656 370"/>
    <path d="M656 370 L708 388"/>
    <path d="M708 388 L760 370"/>
    <path d="M760 370 L812 388"/>
    <path d="M812 388 L856 366"/>

    <!-- vertical / cross edges -->
    <path d="M168 208 L150 296"/>
    <path d="M222 230 L200 278"/>
    <path d="M268 210 L252 296"/>
    <path d="M320 192 L304 278"/>
    <path d="M372 218 L354 300"/>
    <path d="M420 196 L406 284"/>
    <path d="M470 178 L458 304"/>
    <path d="M520 196 L510 290"/>
    <path d="M572 176 L562 308"/>
    <path d="M624 200 L614 292"/>
    <path d="M676 184 L666 310"/>
    <path d="M726 210 L718 294"/>
    <path d="M778 192 L770 310"/>
    <path d="M830 218 L820 290"/>

    <path d="M150 296 L188 388"/>
    <path d="M200 278 L240 366"/>
    <path d="M252 296 L292 386"/>
    <path d="M304 278 L344 368"/>
    <path d="M354 300 L396 388"/>
    <path d="M406 284 L448 370"/>
    <path d="M458 304 L500 390"/>
    <path d="M510 290 L552 370"/>
    <path d="M562 308 L604 390"/>
    <path d="M614 292 L656 370"/>
    <path d="M666 310 L708 388"/>
    <path d="M718 294 L760 370"/>
    <path d="M770 310 L812 388"/>

    <!-- small-world long range -->
    <path d="M120 240 L304 278"/>
    <path d="M222 230 L470 178"/>
    <path d="M268 210 L562 176"/>
    <path d="M624 200 L830 218"/>
    <path d="M676 184 L820 290"/>
    <path d="M150 296 L292 386"/>
    <path d="M252 296 L500 390"/>
    <path d="M458 304 L656 370"/>
    <path d="M562 308 L770 310"/>
    <path d="M604 390 L770 310"/>
    <path d="M138 366 L240 366"/>
    <path d="M812 388 L856 366"/>

    <!-- short cycles -->
    <path d="M222 230 L200 278 L252 296 L268 210 Z"/>
    <path d="M676 184 L726 210 L718 294 L666 310 L624 200 Z"/>
    <path d="M344 368 L396 388 L448 370 L406 284 Z"/>
  </g>

  <!-- recurrent feedback edges (heavier black, with arrowheads) -->
  <g fill="none" stroke="var(--svg-primary)" stroke-width="1">
    <!-- short feedback loops scattered through the graph -->
    <path d="M222 230 C 240 250, 230 280, 200 278" marker-end="url(#loop)"/>
    <path d="M676 184 C 700 200, 700 230, 718 294" marker-end="url(#loop)"/>
    <path d="M396 388 C 380 350, 360 320, 354 300" marker-end="url(#loop)"/>
    <path d="M510 290 C 540 300, 540 350, 552 370" marker-end="url(#loop)"/>
  </g>

  <!-- self-modeling closure region -->
  <g>
    <path d="M398 234 C 398 218, 432 214, 472 220 C 524 228, 552 246, 552 270 C 552 302, 522 314, 480 314 C 432 314, 398 298, 398 274 Z"
          fill="var(--svg-inverse)" stroke="var(--svg-primary)" stroke-width="1" stroke-dasharray="3 3"/>
    <text x="475" y="158" text-anchor="middle" font-size="10" font-weight="600" fill="var(--svg-primary)" letter-spacing="0.08em">SELF-MODEL</text>
    <line x1="475" y1="164" x2="475" y2="218" stroke="var(--svg-primary)" stroke-width="0.8" stroke-dasharray="2 3"/>

    <!-- inner subgraph -->
    <g fill="none" stroke="var(--svg-primary)" stroke-width="0.8">
      <path d="M425 250 L455 240 L490 245 L515 260 L505 285 L470 290 L440 280 Z"/>
      <path d="M455 240 L505 285"/>
      <path d="M490 245 L440 280"/>
      <path d="M425 250 L490 245"/>
    </g>
    <g fill="var(--svg-primary)">
      <circle cx="425" cy="250" r="2"/>
      <circle cx="455" cy="240" r="2"/>
      <circle cx="490" cy="245" r="2"/>
      <circle cx="515" cy="260" r="2"/>
      <circle cx="505" cy="285" r="2"/>
      <circle cx="470" cy="290" r="2"/>
      <circle cx="440" cy="280" r="2"/>
    </g>
  </g>

  <!-- bridges between graph and self-model -->
  <g fill="none" stroke="var(--svg-primary)" stroke-width="1">
    <path d="M354 300 L420 280" marker-end="url(#loop)"/>
    <path d="M520 268 L614 292" marker-end="url(#loop)"/>
    <path d="M470 178 L470 218" marker-end="url(#loop)"/>
  </g>

  <!-- nodes -->
  <g fill="var(--svg-primary)">
    <circle cx="120" cy="240" r="2.4"/>
    <circle cx="168" cy="208" r="2.4"/>
    <circle cx="222" cy="230" r="2.4"/>
    <circle cx="268" cy="210" r="2.4"/>
    <circle cx="320" cy="192" r="2.4"/>
    <circle cx="372" cy="218" r="2.4"/>
    <circle cx="420" cy="196" r="2.4"/>
    <circle cx="470" cy="178" r="2.4"/>
    <circle cx="520" cy="196" r="2.4"/>
    <circle cx="572" cy="176" r="2.4"/>
    <circle cx="624" cy="200" r="2.4"/>
    <circle cx="676" cy="184" r="2.4"/>
    <circle cx="726" cy="210" r="2.4"/>
    <circle cx="778" cy="192" r="2.4"/>
    <circle cx="830" cy="218" r="2.4"/>
    <circle cx="862" cy="246" r="2.4"/>

    <circle cx="150" cy="296" r="2.4"/>
    <circle cx="200" cy="278" r="2.4"/>
    <circle cx="252" cy="296" r="2.4"/>
    <circle cx="304" cy="278" r="2.4"/>
    <circle cx="354" cy="300" r="2.4"/>
    <circle cx="406" cy="284" r="2.4"/>
    <circle cx="458" cy="304" r="2.4"/>
    <circle cx="510" cy="290" r="2.4"/>
    <circle cx="562" cy="308" r="2.4"/>
    <circle cx="614" cy="292" r="2.4"/>
    <circle cx="666" cy="310" r="2.4"/>
    <circle cx="718" cy="294" r="2.4"/>
    <circle cx="770" cy="310" r="2.4"/>
    <circle cx="820" cy="290" r="2.4"/>

    <circle cx="138" cy="366" r="2.4"/>
    <circle cx="188" cy="388" r="2.4"/>
    <circle cx="240" cy="366" r="2.4"/>
    <circle cx="292" cy="386" r="2.4"/>
    <circle cx="344" cy="368" r="2.4"/>
    <circle cx="396" cy="388" r="2.4"/>
    <circle cx="448" cy="370" r="2.4"/>
    <circle cx="500" cy="390" r="2.4"/>
    <circle cx="552" cy="370" r="2.4"/>
    <circle cx="604" cy="390" r="2.4"/>
    <circle cx="656" cy="370" r="2.4"/>
    <circle cx="708" cy="388" r="2.4"/>
    <circle cx="760" cy="370" r="2.4"/>
    <circle cx="812" cy="388" r="2.4"/>
    <circle cx="856" cy="366" r="2.4"/>
  </g>

  <!-- annotations -->
  <g font-size="11" fill="var(--svg-soft)">
    <text x="60" y="490" letter-spacing="0.04em">recurrent edges close cycles &#8594; structure persists across material turnover</text>
    <text x="60" y="508" letter-spacing="0.04em">self-modeling closure &#8594; the system represents the system &#8594; &#8220;I&#8221;</text>
  </g>

  <text x="920" y="490" text-anchor="end" font-size="11" fill="var(--svg-soft)" font-style="italic">identity &#8801; intrinsic cause-effect structure</text>
  <text x="920" y="508" text-anchor="end" font-size="11" fill="var(--svg-muted)">(not modules, not substrate, not biography)</text>
</svg>
