<svg xmlns="http://www.w3.org/2000/svg" viewBox="0 0 980 560" role="img" aria-labelledby="title desc" font-family="Inter, system-ui, Arial, sans-serif">
  <title id="title">Underdetermined graph-growth chamber</title>
  <desc id="desc">A pipeline diagram: human priors seed a growth chamber that imposes only soft constraints and exposes load-bearing bifurcation points to true randomness, producing an emergent identity graph evaluated against null hypotheses.</desc>
  <style>
    :root { --svg-primary: #0f172a; --svg-secondary: #64748b; --svg-muted: #94a3b8; --svg-soft: #475569; --svg-line: #cbd5e1; --svg-divider: #e2e8f0; --svg-inverse: #ffffff; }
    @media (prefers-color-scheme: dark) {
      :root { --svg-primary: #e5e7eb; --svg-secondary: #a1a1aa; --svg-muted: #71717a; --svg-soft: #cbd5e1; --svg-line: #52525b; --svg-divider: #3f3f46; --svg-inverse: #111827; }
    }
  </style>
  <defs>
    <marker id="arrow2" markerWidth="10" markerHeight="10" refX="8" refY="5" orient="auto">
      <path d="M0,0 L8,5 L0,10 Z" fill="var(--svg-primary)"/>
    </marker>
  </defs>

  <text x="60" y="56" font-size="22" font-weight="500" fill="var(--svg-primary)" letter-spacing="-0.01em">Underdetermined graph-growth chamber</text>
  <text x="60" y="80" font-size="13" fill="var(--svg-secondary)">Maximal underdetermination inside a narrow human-compatible basin: human enough to matter, open enough to be biased.</text>

  <!-- Box 1: human priors -->
  <g transform="translate(60 170)">
    <rect width="220" height="240" fill="none" stroke="var(--svg-primary)" stroke-width="1"/>
    <text x="16" y="26" font-size="11" font-weight="600" fill="var(--svg-primary)" letter-spacing="0.06em">01 &#160; HUMAN PRIORS</text>
    <line x1="16" y1="38" x2="204" y2="38" stroke="var(--svg-divider)" stroke-width="1"/>
    <g font-size="12" fill="var(--svg-soft)">
      <text x="16" y="64">thalamocortical loops</text>
      <text x="16" y="86">hippocampal indexing</text>
      <text x="16" y="108">limbic valuation</text>
      <text x="16" y="130">language priors</text>
      <text x="16" y="152">body schema</text>
      <text x="16" y="174">sleep / dream cycles</text>
      <text x="16" y="196">mortality modeling</text>
    </g>
  </g>

  <!-- Box 2: chamber (center, larger) -->
  <g transform="translate(360 130)">
    <rect width="260" height="320" fill="none" stroke="var(--svg-primary)" stroke-width="1"/>
    <text x="16" y="26" font-size="11" font-weight="600" fill="var(--svg-primary)" letter-spacing="0.06em">02 &#160; GROWTH CHAMBER</text>
    <line x1="16" y1="38" x2="244" y2="38" stroke="var(--svg-divider)" stroke-width="1"/>
    <text x="16" y="60" font-size="12" fill="var(--svg-soft)">soft constraints &#8212; coherence,</text>
    <text x="16" y="76" font-size="12" fill="var(--svg-soft)">agency, self-model</text>

    <!-- bifurcating graph illustration: pure linework, symmetric 1->2->4->8 -->
    <g transform="translate(28 108)">
      <g stroke="var(--svg-primary)" stroke-width="1" fill="none">
        <path d="M22 90 L74 50"/>
        <path d="M22 90 L74 130"/>
        <path d="M80 50 L130 30"/>
        <path d="M80 50 L130 70"/>
        <path d="M80 130 L130 110"/>
        <path d="M80 130 L130 150"/>
        <path d="M136 30 L186 20"/>
        <path d="M136 30 L186 40"/>
        <path d="M136 70 L186 60"/>
        <path d="M136 70 L186 80"/>
        <path d="M136 110 L186 100"/>
        <path d="M136 110 L186 120"/>
        <path d="M136 150 L186 140"/>
        <path d="M136 150 L186 160"/>
      </g>

      <g fill="var(--svg-primary)">
        <circle cx="22"  cy="90"  r="2.5"/>
        <circle cx="80"  cy="50"  r="2.5"/>
        <circle cx="80"  cy="130" r="2.5"/>
        <circle cx="136" cy="30"  r="2.5"/>
        <circle cx="136" cy="70"  r="2.5"/>
        <circle cx="136" cy="110" r="2.5"/>
        <circle cx="136" cy="150" r="2.5"/>
        <circle cx="190" cy="20"  r="2.5"/>
        <circle cx="190" cy="40"  r="2.5"/>
        <circle cx="190" cy="60"  r="2.5"/>
        <circle cx="190" cy="80"  r="2.5"/>
        <circle cx="190" cy="100" r="2.5"/>
        <circle cx="190" cy="120" r="2.5"/>
        <circle cx="190" cy="140" r="2.5"/>
        <circle cx="190" cy="160" r="2.5"/>
      </g>

      <!-- Q markers at bifurcations -->
      <g font-size="10" font-weight="600" fill="var(--svg-primary)" letter-spacing="0.04em">
        <text x="74"  y="42" text-anchor="middle">Q</text>
        <text x="130" y="22" text-anchor="middle">Q</text>
        <text x="130" y="142" text-anchor="middle">Q</text>
      </g>
    </g>

    <text x="130" y="298" text-anchor="middle" font-size="11" fill="var(--svg-secondary)" font-style="italic">Q = randomness at load-bearing bifurcation</text>
  </g>

  <!-- Box 3: emergent graph -->
  <g transform="translate(700 170)">
    <rect width="220" height="240" fill="none" stroke="var(--svg-primary)" stroke-width="1"/>
    <text x="16" y="26" font-size="11" font-weight="600" fill="var(--svg-primary)" letter-spacing="0.06em">03 &#160; EMERGENT GRAPH</text>
    <line x1="16" y1="38" x2="204" y2="38" stroke="var(--svg-divider)" stroke-width="1"/>
    <g font-size="12" fill="var(--svg-soft)">
      <text x="16" y="64">identity signatures</text>
      <text x="16" y="86">affect topology</text>
      <text x="16" y="108">attention-routing</text>
      <text x="16" y="130">value-ranking</text>
      <text x="16" y="152">contradiction style</text>
      <text x="16" y="174">tested vs. nulls</text>
      <text x="16" y="196">not just imitation</text>
    </g>
  </g>

  <!-- arrows -->
  <g stroke="var(--svg-primary)" stroke-width="1" fill="none">
    <line x1="285" y1="290" x2="355" y2="290" marker-end="url(#arrow2)"/>
    <line x1="625" y1="290" x2="695" y2="290" marker-end="url(#arrow2)"/>
  </g>
  <text x="320" y="282" text-anchor="middle" font-size="11" fill="var(--svg-secondary)" font-style="italic">species-gate</text>
  <text x="660" y="282" text-anchor="middle" font-size="11" fill="var(--svg-secondary)" font-style="italic">measure</text>

  <!-- bottom equation -->
  <text x="490" y="500" text-anchor="middle" font-size="13" font-style="italic" fill="var(--svg-primary)">G&#8336;&#8330;&#8321; = F( G&#8336;, &#160;C&#8336;, &#160;Q&#8336; )</text>
  <text x="490" y="520" text-anchor="middle" font-size="11" fill="var(--svg-secondary)">soft constraints C&#8336; &#160;&#183;&#160; physically indeterminate input Q&#8336;</text>
</svg>
